<svg width="79" height="96" viewBox="0 0 79 96" fill="none" xmlns="http://www.w3.org/2000/svg">
<path d="M14.766 6.88232C12.1847 19.6924 2.7908 67.856 0.292641 80.7094C0.128937 81.5524 0.304842 82.4259 0.782055 83.1398C1.25927 83.8538 1.99916 84.3504 2.8407 84.5215L55.5681 95.206C55.9893 95.2911 56.4233 95.292 56.8449 95.2087C57.2665 95.1253 57.6674 94.9594 58.0246 94.7203C58.3817 94.4813 58.688 94.174 58.9258 93.816C59.1636 93.458 59.3282 93.0565 59.4102 92.6346L66.6285 55.3951L71.1292 56.0904C71.66 56.1721 72.2017 56.0443 72.6399 55.7339C73.0782 55.4235 73.3786 54.9549 73.4777 54.4271L78.9663 24.3528C79.0153 24.0856 79.0111 23.8115 78.9539 23.5459C78.8968 23.2804 78.7879 23.0287 78.6334 22.8054C78.479 22.582 78.2819 22.3912 78.0537 22.2441C77.8254 22.0969 77.5703 21.9962 77.3031 21.9478L73.2614 21.1893L73.7904 18.282C73.9424 17.4436 73.7577 16.579 73.2763 15.8759C72.7949 15.1728 72.0557 14.688 71.219 14.5265L18.5415 4.34424C17.7049 4.18644 16.8399 4.36424 16.1334 4.8392C15.4269 5.31415 14.9357 6.04808 14.766 6.88232Z" fill="#263238"/>
<path d="M18.6879 8.11963L1.27734 81.797L55.3719 94.1946L72.4199 21.0362L18.6879 8.11963Z" fill="#E0E0E0"/>
<path d="M12.3977 5.38232L0 80.0642L54.8131 88.7829L66.8814 14.6431L12.3977 5.38232Z" fill="#EBEBEB"/>
<path d="M4.35777 9.29053L2.0459 84.9604L57.5276 86.2843L59.59 11.1932L4.35777 9.29053Z" fill="white"/>
<path d="M4.36104 9.29053L59.5799 11.1234H59.6731V11.1932C59.0976 32.2895 58.3891 58.2458 57.624 86.281V86.3675H57.5375H57.1317L2.05249 85.0369H1.97266V84.9571C3.38972 40.2031 4.3444 9.98575 4.36769 9.29053C4.33775 9.98575 3.45625 40.2031 2.12567 84.9637L2.04916 84.8839L57.1284 86.1879H57.5342L57.4444 86.271C58.2228 58.2358 58.9413 32.2796 59.5234 11.1799L59.5933 11.2531L4.36104 9.29053Z" fill="#263238"/>
<path d="M51.8095 25.4772C51.8095 25.6236 42.2626 25.607 30.4937 25.4473C18.7247 25.2876 9.18115 25.0415 9.18115 24.8984C9.18115 24.7554 18.728 24.7687 30.5003 24.9284C42.2726 25.088 51.8128 25.3342 51.8095 25.4772Z" fill="#263238"/>
<path d="M52.2085 32.1734C52.2085 32.3165 42.6649 32.3032 30.8927 32.1435C19.1204 31.9838 9.58017 31.7343 9.5835 31.5913C9.58682 31.4483 19.1271 31.4616 30.8993 31.6212C42.6716 31.7809 52.2118 32.0304 52.2085 32.1734Z" fill="#263238"/>
<path d="M52.7807 52.694C52.7807 52.837 43.2338 52.8237 31.4649 52.664C19.6959 52.5044 10.149 52.2582 10.1523 52.1118C10.1557 51.9655 19.6959 51.9821 31.4715 52.1451C43.2471 52.3081 52.7807 52.5509 52.7807 52.694Z" fill="#263238"/>
<path d="M52.7807 46.191C52.7807 46.3341 43.2338 46.3207 31.4649 46.1578C19.6959 45.9948 10.149 45.7519 10.1523 45.6089C10.1557 45.4659 19.6959 45.4792 31.4715 45.6388C43.2471 45.7985 52.7807 46.0613 52.7807 46.191Z" fill="#263238"/>
<path d="M52.7807 39.7111C52.7807 39.8542 43.2338 39.8409 31.4649 39.6812C19.6959 39.5215 10.149 39.2754 10.1523 39.1323C10.1557 38.9893 19.6959 39.0026 31.4715 39.1623C43.2471 39.3219 52.7807 39.5681 52.7807 39.7111Z" fill="#263238"/>
<path d="M52.1352 59.9392C52.1352 60.0822 42.5883 60.0689 30.8193 59.9092C19.0504 59.7495 9.50684 59.5034 9.50684 59.3604C9.50684 59.2173 19.0537 59.2306 30.826 59.3903C42.5983 59.55 52.1385 59.7961 52.1352 59.9392Z" fill="#263238"/>
<path d="M52.0224 67.0611C52.0224 67.2042 42.4755 67.1909 30.7066 67.0312C18.9376 66.8715 9.39072 66.622 9.39404 66.479C9.39737 66.336 18.9376 66.3493 30.7132 66.5089C42.4888 66.6686 52.0224 66.9181 52.0224 67.0611Z" fill="#263238"/>
<path d="M51.8891 74.1799C51.8891 74.3229 42.3422 74.3096 30.5699 74.1499C18.7976 73.9903 9.25742 73.7441 9.26074 73.6011C9.26407 73.458 18.8043 73.4713 30.5799 73.631C42.3555 73.7907 51.8891 74.0368 51.8891 74.1799Z" fill="#263238"/>
<path d="M58.8979 27.0107C66.3493 27.0107 72.3899 20.9641 72.3899 13.5054C72.3899 6.04655 66.3493 0 58.8979 0C51.4464 0 45.4058 6.04655 45.4058 13.5054C45.4058 20.9641 51.4464 27.0107 58.8979 27.0107Z" fill="#16956C"/>
<path opacity="0.5" d="M58.9112 27.0107C66.37 27.0107 72.4165 20.9641 72.4165 13.5054C72.4165 6.04655 66.37 0 58.9112 0C51.4524 0 45.4058 6.04655 45.4058 13.5054C45.4058 20.9641 51.4524 27.0107 58.9112 27.0107Z" fill="black"/>
<path d="M57.4146 27.0107C64.866 27.0107 70.9066 20.9641 70.9066 13.5054C70.9066 6.04655 64.866 0 57.4146 0C49.9631 0 43.9225 6.04655 43.9225 13.5054C43.9225 20.9641 49.9631 27.0107 57.4146 27.0107Z" fill="#16956C"/>
<path d="M57.5142 5.54834H57.3213C56.9392 5.54834 56.6294 5.85811 56.6294 6.24024V20.7735C56.6294 21.1556 56.9392 21.4654 57.3213 21.4654H57.5142C57.8964 21.4654 58.2061 21.1556 58.2061 20.7735V6.24024C58.2061 5.85811 57.8964 5.54834 57.5142 5.54834Z" fill="#FAFAFA"/>
<path d="M49.4644 13.4154V13.6017C49.4644 13.9856 49.7756 14.2969 50.1596 14.2969L64.6762 14.2969C65.0601 14.2969 65.3714 13.9856 65.3714 13.6017V13.4154C65.3714 13.0314 65.0601 12.7201 64.6762 12.7201H50.1596C49.7756 12.7201 49.4644 13.0314 49.4644 13.4154Z" fill="#FAFAFA"/>
</svg>
