<svg width="26" height="26" viewBox="0 0 26 26" fill="none" xmlns="http://www.w3.org/2000/svg">
<g id="fluent:add-24-filled" clip-path="url(#clip0_135_2234)">
<g id="Group">
<path id="Vector" d="M17.2822 3.60027L17.4033 3.59302C17.657 3.59305 17.9018 3.68617 18.0913 3.85471C18.2809 4.02326 18.402 4.2555 18.4316 4.5074L18.4389 4.62856V11.8773H25.6877C25.9413 11.8774 26.1861 11.9705 26.3756 12.139C26.5652 12.3076 26.6863 12.5398 26.716 12.7917L26.7232 12.9129C26.7232 13.1665 26.63 13.4113 26.4615 13.6009C26.293 13.7904 26.0607 13.9115 25.8088 13.9412L25.6877 13.9484H18.4389V21.1972C18.4389 21.4508 18.3457 21.6956 18.1772 21.8852C18.0086 22.0747 17.7764 22.1958 17.5245 22.2255L17.4033 22.2327C17.1497 22.2327 16.9049 22.1396 16.7154 21.971C16.5258 21.8025 16.4047 21.5702 16.3751 21.3183L16.3678 21.1972V13.9484H9.11904C8.8654 13.9484 8.62059 13.8553 8.43105 13.6867C8.24151 13.5182 8.12042 13.2859 8.09074 13.034L8.0835 12.9129C8.08353 12.6592 8.17665 12.4144 8.34519 12.2249C8.51374 12.0353 8.74598 11.9143 8.99788 11.8846L9.11904 11.8773H16.3678V4.62856C16.3678 4.37492 16.461 4.13011 16.6295 3.94057C16.798 3.75103 17.0303 3.62994 17.2822 3.60027L17.4033 3.59302L17.2822 3.60027Z" fill="#16956C"/>
</g>
</g>
<defs>
<clipPath id="clip0_135_2234">
<rect width="24.8529" height="24.8529" fill="white" transform="translate(0.627441 0.279297)"/>
</clipPath>
</defs>
</svg>
