<svg width="40" height="40" viewBox="0 0 40 40" fill="none" xmlns="http://www.w3.org/2000/svg">
<rect width="40" height="40" rx="5" fill="#F9F9F9"/>
<path d="M18.0898 16.9859L25.7013 9.37305L30.5591 14.2315L22.9469 21.8437L18.0898 16.9859Z" fill="#CCD6DD"/>
<path d="M13.5817 30.9323C9.67166 30.6539 8.9738 27.9057 9.06801 26.4193C9.29272 22.8812 19.9552 14.8691 19.9552 14.8691L28.6902 16.216C28.6909 16.216 16.5553 31.1445 13.5817 30.9323V30.9323Z" fill="#68E090"/>
<path d="M30.4855 9.51448C28.4471 7.47605 26.1435 6.47393 25.341 7.27716C25.3319 7.28623 25.3256 7.29879 25.3172 7.30787C25.313 7.31205 25.3068 7.31345 25.3026 7.31764L9.5283 23.0919C8.54293 24.0773 8 25.3878 8 26.7822C8 28.1758 8.54293 29.4863 9.5283 30.4717C10.5144 31.4578 11.8249 32 13.2185 32C14.6129 32 15.9227 31.4578 16.9081 30.4724L32.6824 14.6981C32.6872 14.6932 32.6886 14.687 32.6928 14.6821C32.7019 14.6737 32.7138 14.6681 32.7228 14.659C33.5261 13.8565 32.524 11.5529 30.4855 9.51448V9.51448ZM15.4286 28.9923C14.8383 29.5826 14.0539 29.9071 13.2192 29.9071C12.3846 29.9071 11.5995 29.5819 11.0091 28.9916C10.4188 28.4012 10.0936 27.6168 10.0936 26.7815C10.0936 25.9468 10.4188 25.1624 11.0084 24.5721L25.6606 9.92063C26.0946 10.719 26.7492 11.5913 27.579 12.4217C28.4087 13.2515 29.2817 13.9061 30.0801 14.3401L15.4286 28.9923Z" fill="#8899A6"/>
<path d="M28.3013 16.0993C28.2608 16.3637 26.468 16.6234 24.3298 16.3386C22.1923 16.0539 20.5042 15.4852 20.5593 15.0685C20.6151 14.6519 22.3926 14.5444 24.5308 14.8292C26.669 15.1139 28.3655 15.6833 28.3013 16.0993ZM15.4915 23.1497C15.2752 23.366 14.9242 23.366 14.7078 23.1497C14.4915 22.9333 14.4915 22.5823 14.7078 22.366C14.9242 22.1496 15.2752 22.1496 15.4915 22.366C15.7078 22.5823 15.7078 22.9333 15.4915 23.1497ZM17.8063 24.9746C17.4525 25.3284 16.8795 25.3277 16.5257 24.9746C16.1726 24.6214 16.1726 24.0478 16.5257 23.6947C16.8795 23.3409 17.4525 23.3416 17.8056 23.6947C18.1594 24.0478 18.1601 24.6207 17.8063 24.9746V24.9746ZM18.9766 21.2592C18.6444 21.5914 18.1043 21.5914 17.7721 21.2592C17.4399 20.927 17.4399 20.3876 17.7721 20.0547C18.1043 19.7225 18.6437 19.7218 18.9759 20.0547C19.3095 20.3876 19.3095 20.927 18.9766 21.2592ZM14.1837 27.4408C13.7783 27.8462 13.1202 27.8462 12.7148 27.4408C12.3086 27.0346 12.3093 26.3772 12.7148 25.9718C13.1202 25.5663 13.7776 25.5663 14.1837 25.9718C14.5892 26.3772 14.5899 27.0346 14.1837 27.4408ZM22.1365 21.0498C21.8483 21.338 21.3807 21.338 21.0925 21.0498C20.8043 20.7616 20.805 20.2941 21.0932 20.0058C21.3821 19.7169 21.849 19.7169 22.1372 20.0051C22.4254 20.2941 22.4254 20.7609 22.1365 21.0498ZM21.2942 18.0574C21.1057 18.2459 20.8001 18.2459 20.611 18.0574C20.4225 17.869 20.4225 17.5634 20.611 17.3742C20.7994 17.1858 21.105 17.1851 21.2942 17.3742C21.4826 17.5634 21.4826 17.869 21.2942 18.0574Z" fill="#17BF63"/>
<path d="M31.8244 12.9634C32.1471 12.6407 31.3378 11.3083 30.0169 9.98738C28.6959 8.66645 27.3635 7.85722 27.0408 8.1799C26.7181 8.50258 27.5274 9.83498 28.8484 11.1559C30.1693 12.4768 31.5018 13.2861 31.8244 12.9634Z" fill="#CCD6DD"/>
</svg>
