<svg width="25" height="25" viewBox="0 0 25 25" fill="none" xmlns="http://www.w3.org/2000/svg">
<path d="M2.0835 11.1113V9.72244H22.9168V11.1113H2.0835ZM2.0835 15.9724V14.5836H22.9168V15.9724H2.0835ZM2.0835 20.8336V19.4447H22.9168V20.8336H2.0835ZM2.0835 6.25022V4.86133H22.9168V6.25022H2.0835Z" fill="#CCD6DD"/>
<path d="M24.3057 22.9167V0.694444C24.3057 0.311111 23.9946 0 23.6112 0H22.9168C22.5335 0 22.2224 0.311111 22.2224 0.694444H2.77791C2.77791 0.311111 2.4668 0 2.08347 0H1.38902C1.00569 0 0.69458 0.311111 0.69458 0.694444V22.9167H24.3057ZM2.77791 2.77778H22.2224V22.9167H2.77791V2.77778Z" fill="#D5AB88"/>
<path d="M13.1946 3.81934C12.6189 3.81934 12.1529 4.28531 12.1529 4.861C12.1529 4.28531 11.6869 3.81934 11.1112 3.81934C10.5356 3.81934 10.0696 4.28531 10.0696 4.861C10.0696 4.28531 9.60361 3.81934 9.02791 3.81934C8.45222 3.81934 7.98625 4.28531 7.98625 4.861C7.98625 4.28531 7.52027 3.81934 6.94458 3.81934C6.36889 3.81934 5.90291 4.28531 5.90291 4.861C5.90291 4.28531 5.43694 3.81934 4.86125 3.81934C4.28555 3.81934 3.81958 4.28531 3.81958 4.861V6.24989C3.81958 6.82559 4.28555 7.29156 4.86125 7.29156C5.43694 7.29156 5.90291 6.82559 5.90291 6.24989C5.90291 6.82559 6.36889 7.29156 6.94458 7.29156C7.52027 7.29156 7.98625 6.82559 7.98625 6.24989C7.98625 6.82559 8.45222 7.29156 9.02791 7.29156C9.60361 7.29156 10.0696 6.82559 10.0696 6.24989C10.0696 6.82559 10.5356 7.29156 11.1112 7.29156C11.6869 7.29156 12.1529 6.82559 12.1529 6.24989C12.1529 6.82559 12.6189 7.29156 13.1946 7.29156C13.7696 7.29156 14.2362 6.82559 14.2362 6.24989V4.861C14.2362 4.28531 13.7696 3.81934 13.1946 3.81934Z" fill="#3B94D9"/>
<path d="M13.1946 8.68066C12.6189 8.68066 12.1529 9.14664 12.1529 9.72233C12.1529 9.14664 11.6869 8.68066 11.1112 8.68066C10.5356 8.68066 10.0696 9.14664 10.0696 9.72233C10.0696 9.14664 9.60361 8.68066 9.02791 8.68066C8.45222 8.68066 7.98625 9.14664 7.98625 9.72233C7.98625 9.14664 7.52027 8.68066 6.94458 8.68066C6.36889 8.68066 5.90291 9.14664 5.90291 9.72233C5.90291 9.14664 5.43694 8.68066 4.86125 8.68066C4.28555 8.68066 3.81958 9.14664 3.81958 9.72233V11.1112C3.81958 11.6869 4.28555 12.1529 4.86125 12.1529C5.43694 12.1529 5.90291 11.6869 5.90291 11.1112C5.90291 11.6869 6.36889 12.1529 6.94458 12.1529C7.52027 12.1529 7.98625 11.6869 7.98625 11.1112C7.98625 11.6869 8.45222 12.1529 9.02791 12.1529C9.60361 12.1529 10.0696 11.6869 10.0696 11.1112C10.0696 11.6869 10.5356 12.1529 11.1112 12.1529C11.6869 12.1529 12.1529 11.6869 12.1529 11.1112C12.1529 11.6869 12.6189 12.1529 13.1946 12.1529C13.7696 12.1529 14.2362 11.6869 14.2362 11.1112V9.72233C14.2362 9.14664 13.7696 8.68066 13.1946 8.68066Z" fill="#BE1931"/>
<path d="M13.1946 13.5415C12.6189 13.5415 12.1529 14.0082 12.1529 14.5832C12.1529 14.0082 11.6869 13.5415 11.1112 13.5415C10.5356 13.5415 10.0696 14.0082 10.0696 14.5832C10.0696 14.0082 9.60361 13.5415 9.02791 13.5415C8.45222 13.5415 7.98625 14.0082 7.98625 14.5832C7.98625 14.0082 7.52027 13.5415 6.94458 13.5415C6.36889 13.5415 5.90291 14.0082 5.90291 14.5832C5.90291 14.0082 5.43694 13.5415 4.86125 13.5415C4.28555 13.5415 3.81958 14.0082 3.81958 14.5832V15.9721C3.81958 16.5471 4.28555 17.0137 4.86125 17.0137C5.43694 17.0137 5.90291 16.5471 5.90291 15.9721C5.90291 16.5471 6.36889 17.0137 6.94458 17.0137C7.52027 17.0137 7.98625 16.5471 7.98625 15.9721C7.98625 16.5471 8.45222 17.0137 9.02791 17.0137C9.60361 17.0137 10.0696 16.5471 10.0696 15.9721C10.0696 16.5471 10.5356 17.0137 11.1112 17.0137C11.6869 17.0137 12.1529 16.5471 12.1529 15.9721C12.1529 16.5471 12.6189 17.0137 13.1946 17.0137C13.7696 17.0137 14.2362 16.5471 14.2362 15.9721V14.5832C14.2362 14.0082 13.7696 13.5415 13.1946 13.5415Z" fill="#5C913B"/>
<path d="M13.1946 18.4028C12.6189 18.4028 12.1529 18.8695 12.1529 19.4445C12.1529 18.8695 11.6869 18.4028 11.1112 18.4028C10.5356 18.4028 10.0696 18.8695 10.0696 19.4445C10.0696 18.8695 9.60361 18.4028 9.02791 18.4028C8.45222 18.4028 7.98625 18.8695 7.98625 19.4445C7.98625 18.8695 7.52027 18.4028 6.94458 18.4028C6.36889 18.4028 5.90291 18.8695 5.90291 19.4445C5.90291 18.8695 5.43694 18.4028 4.86125 18.4028C4.28555 18.4028 3.81958 18.8695 3.81958 19.4445V20.8334C3.81958 21.4084 4.28555 21.8751 4.86125 21.8751C5.43694 21.8751 5.90291 21.4084 5.90291 20.8334C5.90291 21.4084 6.36889 21.8751 6.94458 21.8751C7.52027 21.8751 7.98625 21.4084 7.98625 20.8334C7.98625 21.4084 8.45222 21.8751 9.02791 21.8751C9.60361 21.8751 10.0696 21.4084 10.0696 20.8334C10.0696 21.4084 10.5356 21.8751 11.1112 21.8751C11.6869 21.8751 12.1529 21.4084 12.1529 20.8334C12.1529 21.4084 12.6189 21.8751 13.1946 21.8751C13.7696 21.8751 14.2362 21.4084 14.2362 20.8334V19.4445C14.2362 18.8695 13.7696 18.4028 13.1946 18.4028Z" fill="#FFAC33"/>
<path d="M20.1388 7.29156C19.5638 7.29156 19.0972 6.82559 19.0972 6.24989V4.861C19.0972 4.28531 19.5638 3.81934 20.1388 3.81934C20.7138 3.81934 21.1805 4.28531 21.1805 4.861V6.24989C21.1805 6.82559 20.7138 7.29156 20.1388 7.29156Z" fill="#3B94D9"/>
<path d="M20.1388 12.1529C19.5638 12.1529 19.0972 11.6869 19.0972 11.1112V9.72233C19.0972 9.14664 19.5638 8.68066 20.1388 8.68066C20.7138 8.68066 21.1805 9.14664 21.1805 9.72233V11.1112C21.1805 11.6869 20.7138 12.1529 20.1388 12.1529Z" fill="#BE1931"/>
<path d="M20.1388 17.0137C19.5638 17.0137 19.0972 16.5471 19.0972 15.9721V14.5832C19.0972 14.0082 19.5638 13.5415 20.1388 13.5415C20.7138 13.5415 21.1805 14.0082 21.1805 14.5832V15.9721C21.1805 16.5471 20.7138 17.0137 20.1388 17.0137Z" fill="#5C913B"/>
<path d="M20.1388 21.8751C19.5638 21.8751 19.0972 21.4084 19.0972 20.8334V19.4445C19.0972 18.8695 19.5638 18.4028 20.1388 18.4028C20.7138 18.4028 21.1805 18.8695 21.1805 19.4445V20.8334C21.1805 21.4084 20.7138 21.8751 20.1388 21.8751Z" fill="#FFAC33"/>
<path d="M24.3056 22.9165H0.694444C0.311111 22.9165 0 23.2276 0 23.6109V24.3054C0 24.6887 0.311111 24.9998 0.694444 24.9998H24.3056C24.6889 24.9998 25 24.6887 25 24.3054V23.6109C25 23.2276 24.6889 22.9165 24.3056 22.9165Z" fill="#BF6952"/>
</svg>
