<svg width="31" height="25" viewBox="0 0 31 25" fill="none" xmlns="http://www.w3.org/2000/svg">
<path d="M9.60351e-09 7.05478L14.6686 14.6837C14.8157 14.7602 14.9791 14.8001 15.1449 14.8001C15.3108 14.8001 15.4742 14.7602 15.6213 14.6837L30.2899 7.05616V20.308C30.2899 21.4509 29.8526 22.5506 29.0677 23.3813C28.2828 24.2121 27.2097 24.711 26.0686 24.7757L25.8152 24.7826H4.47464C3.33169 24.7827 2.23205 24.3454 1.40128 23.5604C0.570505 22.7755 0.0715924 21.7024 0.00688423 20.5613L9.60351e-09 20.308V7.05478ZM4.47464 9.60352e-09H25.8152C26.9582 -7.48252e-05 28.0578 0.437212 28.8886 1.22216C29.7194 2.0071 30.2183 3.08019 30.283 4.2213L30.2899 4.47464V4.72797L15.1449 12.6033L9.60351e-09 4.72797V4.47464C-7.48252e-05 3.33169 0.437212 2.23205 1.22216 1.40128C2.0071 0.570505 3.08019 0.0715924 4.2213 0.00688422L4.47464 9.60352e-09H25.8152H4.47464Z" fill="white"/>
</svg>
