<svg width="30" height="31" viewBox="0 0 30 31" fill="none" xmlns="http://www.w3.org/2000/svg">
<path d="M13.916 30.9778C14.5024 30.9643 15.0651 30.7438 15.5046 30.3554C15.9441 29.967 16.232 29.4357 16.3175 28.8555H11.4214C11.5093 29.4515 11.8108 29.9953 12.2697 30.3857C12.7285 30.7761 13.3136 30.9865 13.916 30.9778Z" fill="white"/>
<path d="M27.7387 25.2532L27.4222 24.9739C26.5244 24.174 25.7385 23.2566 25.0859 22.2466C24.373 20.8527 23.9458 19.3305 23.8292 17.7693V13.171C23.8255 12.6125 23.7756 12.0552 23.6803 11.5048C22.1036 11.1808 20.6873 10.3218 19.6712 9.07332C18.6551 7.82485 18.1017 6.26362 18.1046 4.65395V4.06752C17.1328 3.58925 16.0886 3.27475 15.0143 3.13669V1.96385C15.0143 1.63428 14.8834 1.3182 14.6503 1.08516C14.4173 0.852114 14.1012 0.721191 13.7716 0.721191C13.442 0.721191 13.126 0.852114 12.8929 1.08516C12.6599 1.3182 12.529 1.63428 12.529 1.96385V3.18323C10.1234 3.52257 7.92189 4.72073 6.33078 6.5565C4.73966 8.39227 3.86641 10.7417 3.87225 13.171V17.7693C3.75567 19.3305 3.32844 20.8527 2.61563 22.2466C1.97418 23.2541 1.20095 24.1713 0.316482 24.9739L0 25.2532V27.8781H27.7387V25.2532Z" fill="white"/>
<path d="M25.0858 9.30829C27.6562 9.30829 29.7399 7.22456 29.7399 4.65415C29.7399 2.08373 27.6562 0 25.0858 0C22.5154 0 20.4316 2.08373 20.4316 4.65415C20.4316 7.22456 22.5154 9.30829 25.0858 9.30829Z" fill="white"/>
</svg>
