<svg width="23" height="25" viewBox="0 0 23 25" fill="none" xmlns="http://www.w3.org/2000/svg">
<path d="M12.1219 14.787L7.70274 10.3672L7.43164 13.4197L9.06938 15.0581L12.1219 14.787Z" fill="#66757F"/>
<path d="M9.06956 15.4058C8.97757 15.4058 8.88906 15.3688 8.82285 15.304L7.18441 13.6656C7.11193 13.5931 7.0743 13.4913 7.08336 13.3889L7.35446 10.3364C7.36631 10.2019 7.45551 10.0862 7.58235 10.0402C7.70919 9.99353 7.85275 10.0256 7.94753 10.1211L12.3667 14.5409C12.4628 14.6371 12.4942 14.7792 12.4475 14.9061C12.4008 15.0329 12.2858 15.1221 12.1506 15.134L9.09883 15.4051L9.06956 15.4058ZM7.79282 13.2878L9.20128 14.6963L11.3485 14.506L7.98377 11.1413L7.79282 13.2878Z" fill="#66757F"/>
<path d="M19.9412 22.2122H17.8505C17.8505 19.9027 16.0176 18.0308 13.7561 18.0308C11.4953 18.0308 9.66176 19.9027 9.66176 22.2122H4.42098C4.42098 21.4428 3.79724 20.8184 3.02715 20.8184C2.25776 20.8184 1.63333 21.4428 1.63333 22.2122C0.863936 22.2122 0.239502 22.8367 0.239502 23.6061C0.239502 24.3755 0.863936 24.9999 1.63333 24.9999H19.9412C20.7106 24.9999 21.335 24.3755 21.335 23.6061C21.335 22.8367 20.7106 22.2122 19.9412 22.2122Z" fill="#8899A6"/>
<path d="M12.2754 6.88037V9.66802C14.9696 9.66802 17.1538 11.8521 17.1538 14.5464C17.1538 17.2407 14.9696 19.4248 12.2754 19.4248H6.36206C7.76843 21.1274 9.89471 22.2124 12.2754 22.2124C16.5091 22.2124 19.9414 18.7802 19.9414 14.5464C19.9414 10.3127 16.5091 6.88037 12.2754 6.88037Z" fill="#8899A6"/>
<path d="M9.7762 21.1071C9.23191 21.6514 8.34962 21.6514 7.80533 21.1071L0.906592 14.2077C0.362303 13.6634 0.362303 12.7811 0.906592 12.2368C1.45088 11.6925 2.33317 11.6925 2.87816 12.2368L9.7769 19.1363C10.3205 19.6806 10.3205 20.5628 9.7762 21.1071ZM4.74101 19.8624C5.12222 19.8088 5.47416 20.0743 5.52782 20.4555C5.58148 20.8367 5.31526 21.1894 4.93475 21.2423L0.793692 21.8236C0.412481 21.8772 0.06054 21.611 0.00687769 21.2305C-0.0467846 20.8493 0.219436 20.4966 0.600647 20.443L4.74101 19.8624Z" fill="#67757F"/>
<path d="M17.3915 1.98779L20.5004 5.09672L17.8479 7.74987L14.739 4.64094L17.3915 1.98779Z" fill="#66757F"/>
<path d="M22.0581 4.84738C21.4817 5.42372 20.5458 5.42372 19.9694 4.84738L17.6424 2.51969C17.0661 1.94404 17.0661 1.00808 17.6424 0.431737C18.2188 -0.143912 19.1547 -0.143912 19.7297 0.431737L22.0588 2.75943C22.6344 3.33577 22.6344 4.27033 22.0581 4.84738ZM11.911 15.3192L7.17061 10.5781C6.89951 10.307 6.89951 9.86375 7.17061 9.59265L14.0408 2.72249C14.3119 2.45139 14.7551 2.45139 15.0262 2.72249L19.7659 7.46359C20.037 7.73469 20.037 8.17792 19.7659 8.44902L12.8957 15.3192C12.6253 15.5903 12.1821 15.5903 11.911 15.3192Z" fill="#AAB8C2"/>
<path d="M7.93091 8.83176L9.07245 7.69092L14.7983 13.4168L13.6567 14.5576L7.93091 8.83176Z" fill="#E1E8ED"/>
</svg>
