<svg width="18" height="25" viewBox="0 0 18 25" fill="none" xmlns="http://www.w3.org/2000/svg">
<path d="M8.87726 20.1191C7.97731 20.1191 7.24716 19.4385 7.24716 18.5386C7.24716 16.5098 8.54115 14.8312 10.4673 14.2639C13.3017 13.4287 14.9779 10.5849 14.3656 7.64902C13.9257 5.54006 12.2129 3.82733 10.104 3.38737C8.36885 3.02873 6.67498 3.4251 5.33741 4.51505C4.01754 5.5873 3.26019 7.17732 3.26019 8.87587C3.26019 9.77582 2.53005 10.506 1.63009 10.506C0.730141 10.506 0 9.77582 0 8.87587C0 6.19122 1.19482 3.67887 3.28023 1.98383C5.36447 0.288795 8.09739 -0.36339 10.7692 0.195626C14.1297 0.895053 16.8579 3.62329 17.5574 6.98382C18.5199 11.5981 15.8671 16.0733 11.3896 17.392C10.8541 17.5501 10.5074 17.9605 10.5074 18.4394C10.5074 19.3393 9.77721 20.1191 8.87726 20.1191Z" fill="#727479"/>
<path d="M8.88912 24.9999C7.98917 24.9999 7.25317 24.2698 7.25317 23.3698C7.25317 22.4699 7.97746 21.7397 8.87742 21.7397H8.88927C9.78922 21.7397 10.5194 22.4699 10.5194 23.3698C10.5192 24.2698 9.78907 24.9999 8.88912 24.9999Z" fill="#727479"/>
</svg>
