<svg width="30" height="30" viewBox="0 0 30 30" fill="none" xmlns="http://www.w3.org/2000/svg">
<g clip-path="url(#clip0_135_1217)">
<path d="M29.7158 28.3679L21.9703 20.7461C23.9986 18.5424 25.2449 15.628 25.2449 12.421C25.2439 5.56065 19.5932 0 12.6222 0C5.65118 0 0.000488281 5.56065 0.000488281 12.421C0.000488281 19.2814 5.65118 24.842 12.6222 24.842C15.6342 24.842 18.3967 23.8002 20.5666 22.0683L28.3421 29.7201C28.721 30.0933 29.3361 30.0933 29.7149 29.7201C30.0947 29.3469 30.0947 28.7411 29.7158 28.3679ZM12.6222 22.931C6.72396 22.931 1.94252 18.2255 1.94252 12.421C1.94252 6.61651 6.72396 1.91105 12.6222 1.91105C18.5205 1.91105 23.3019 6.61651 23.3019 12.421C23.3019 18.2255 18.5205 22.931 12.6222 22.931Z" fill="#4B4D52"/>
</g>
<defs>
<clipPath id="clip0_135_1217">
<rect width="30" height="30" fill="white"/>
</clipPath>
</defs>
</svg>
