<svg width="31" height="31" viewBox="0 0 31 31" fill="none" xmlns="http://www.w3.org/2000/svg">
<path d="M0.672798 10.721C1.34602 8.64221 2.45194 6.72966 3.91776 5.10923C4.03891 4.97534 4.19712 4.88048 4.3723 4.83668C4.54748 4.79289 4.73172 4.80214 4.90163 4.86327L8.3962 6.11315C8.64498 6.20198 8.9101 6.23566 9.17319 6.21184C9.43627 6.18802 9.69104 6.10728 9.91982 5.97521C10.1486 5.84315 10.3459 5.66291 10.4981 5.447C10.6503 5.23108 10.7537 4.98465 10.8012 4.72479L11.4662 1.06989C11.4985 0.89197 11.5829 0.72766 11.7088 0.597875C11.8347 0.468091 11.9963 0.378704 12.1732 0.341094C14.3083 -0.113698 16.5152 -0.113698 18.6503 0.341094C18.8272 0.378704 18.9889 0.468091 19.1147 0.597875C19.2406 0.72766 19.3251 0.89197 19.3573 1.06989L20.0241 4.72479C20.0716 4.98465 20.175 5.23108 20.3272 5.447C20.4794 5.66291 20.6767 5.84315 20.9055 5.97521C21.1343 6.10728 21.3891 6.18802 21.6522 6.21184C21.9152 6.23566 22.1804 6.20198 22.4291 6.11315L25.9255 4.86327C26.0954 4.80275 26.2793 4.79399 26.4542 4.83811C26.629 4.88222 26.7868 4.97721 26.9076 5.11105C28.3725 6.73111 29.4778 8.64301 30.1507 10.721C30.2063 10.8926 30.2096 11.0769 30.1603 11.2504C30.111 11.4239 30.0113 11.5789 29.8738 11.6957L27.0406 14.1007C26.8393 14.2718 26.6776 14.4845 26.5668 14.7243C26.4559 14.964 26.3985 15.225 26.3985 15.4891C26.3985 15.7532 26.4559 16.0142 26.5668 16.2539C26.6776 16.4936 26.8393 16.7064 27.0406 16.8774L29.8738 19.2825C30.0113 19.3993 30.111 19.5543 30.1603 19.7278C30.2096 19.9013 30.2063 20.0856 30.1507 20.2572C29.478 22.3358 28.3727 24.2484 26.9076 25.8689C26.7864 26.0028 26.6282 26.0977 26.453 26.1415C26.2779 26.1853 26.0936 26.176 25.9237 26.1149L22.4291 24.865C22.1804 24.7762 21.9152 24.7425 21.6522 24.7663C21.3891 24.7902 21.1343 24.8709 20.9055 25.003C20.6767 25.135 20.4794 25.3153 20.3272 25.5312C20.175 25.7471 20.0716 25.9935 20.0241 26.2534L19.3554 29.9101C19.323 30.0875 19.2387 30.2512 19.1132 30.3806C18.9877 30.51 18.8266 30.5993 18.6503 30.6371C16.5152 31.092 14.3083 31.092 12.1732 30.6371C11.9963 30.5995 11.8347 30.5101 11.7088 30.3803C11.5829 30.2505 11.4985 30.0862 11.4662 29.9083L10.8012 26.2534C10.7537 25.9935 10.6503 25.7471 10.4981 25.5312C10.3459 25.3153 10.1486 25.135 9.91982 25.003C9.69104 24.8709 9.43627 24.7902 9.17319 24.7663C8.9101 24.7425 8.64498 24.7762 8.3962 24.865L4.89981 26.1149C4.72997 26.1754 4.54599 26.1842 4.37117 26.1401C4.19635 26.096 4.03855 26.001 3.91776 25.8671C2.45277 24.2471 1.34748 22.3352 0.67462 20.2572C0.619079 20.0856 0.615749 19.9013 0.665053 19.7278C0.714356 19.5543 0.814072 19.3993 0.951562 19.2825L3.78475 16.8774C3.98602 16.7064 4.14769 16.4936 4.25856 16.2539C4.36943 16.0142 4.42686 15.7532 4.42686 15.4891C4.42686 15.225 4.36943 14.964 4.25856 14.7243C4.14769 14.4845 3.98602 14.2718 3.78475 14.1007L0.951562 11.6957C0.814072 11.5789 0.714356 11.4239 0.665053 11.2504C0.615749 11.0769 0.619079 10.8926 0.67462 10.721H0.672798ZM11.7687 15.4891C11.7687 16.4555 12.1526 17.3824 12.836 18.0658C13.5194 18.7491 14.4462 19.1331 15.4127 19.1331C16.3791 19.1331 17.306 18.7491 17.9893 18.0658C18.6727 17.3824 19.0566 16.4555 19.0566 15.4891C19.0566 14.5226 18.6727 13.5958 17.9893 12.9124C17.306 12.229 16.3791 11.8451 15.4127 11.8451C14.4462 11.8451 13.5194 12.229 12.836 12.9124C12.1526 13.5958 11.7687 14.5226 11.7687 15.4891Z" fill="white"/>
</svg>
