<svg width="20" height="20" viewBox="0 0 20 20" fill="none" xmlns="http://www.w3.org/2000/svg">
<g clip-path="url(#clip0_135_2190)">
<path d="M5.15492 5.21375L9.52992 0.21375C9.64867 0.07875 9.81992 0 9.99992 0C10.1799 0 10.3512 0.07875 10.4699 0.21375L14.8449 5.21375C15.0062 5.39875 15.0462 5.66 14.9437 5.88375C14.8424 6.10625 14.6199 6.25 14.3749 6.25H11.8749V14.375C11.8749 14.72 11.5949 15 11.2499 15H8.74992C8.40492 15 8.12492 14.72 8.12492 14.375V6.25H5.62492C5.37992 6.25 5.15742 6.1075 5.05617 5.88375C4.95492 5.66 4.99242 5.3975 5.15492 5.21375Z" fill="#16956C"/>
<path d="M3.125 13.75V17.5H16.875V13.75H19.375V18.75C19.375 19.4412 18.815 20 18.125 20H1.875C1.18375 20 0.625 19.4412 0.625 18.75V13.75H3.125Z" fill="#16956C"/>
</g>
<defs>
<clipPath id="clip0_135_2190">
<rect width="20" height="20" fill="white" transform="matrix(-1 0 0 1 20 0)"/>
</clipPath>
</defs>
</svg>
