<svg width="50" height="50" viewBox="0 0 50 50" fill="none" xmlns="http://www.w3.org/2000/svg">
<circle cx="25" cy="25" r="25" fill="white"/>
<path d="M24.4564 10.8696C22.4554 10.8696 20.8921 11.6126 19.7666 13.0985C18.641 14.5845 18.0782 16.484 18.0782 18.797C18.0643 21.6707 18.9815 23.9487 20.8296 25.6309C21.0658 25.8552 21.1492 26.1426 21.0797 26.493L20.6003 27.5023C20.4475 27.8388 20.2217 28.1016 19.9229 28.2909C19.6241 28.4801 18.9954 28.75 18.0365 29.1004C17.9949 29.1144 17.116 29.4018 15.3998 29.9625C13.6837 30.5233 12.7701 30.8317 12.6589 30.8877C11.4916 31.3784 10.7274 31.8901 10.3661 32.4227C9.97701 33.3059 9.78247 35.5418 9.78247 39.1305H39.1303C39.1303 35.5418 38.9358 33.3059 38.5467 32.4227C38.1854 31.8901 37.4211 31.3784 36.2539 30.8877C36.1427 30.8317 35.2291 30.5233 33.5129 29.9625C31.7968 29.4018 30.9179 29.1144 30.8762 29.1004C29.9174 28.75 29.2886 28.4801 28.9899 28.2909C28.6911 28.1016 28.4653 27.8388 28.3125 27.5023L27.833 26.493C27.7636 26.1426 27.8469 25.8552 28.0832 25.6309C29.9313 23.9487 30.8484 21.6707 30.8345 18.797C30.8345 16.484 30.2718 14.5845 29.1462 13.0985C28.0206 11.6126 26.4574 10.8696 24.4564 10.8696Z" fill="#16956C"/>
</svg>
